<svg class="money-stack_horizontal" xmlns="http://www.w3.org/2000/svg" viewBox="0 0 30.93 10" preserveAspectRatio="none">
  <style>
    .money-stack__bottom-rect {
    fill: #7e922d;
    }

    .money-stack__background {
    fill: #fcfdc0;
    }

    .money-stack__pattern {
    fill: #9bab53;
    }

    .money-stack__bottom-border {
    fill: none;
    stroke: #525b1e;
    stroke-miterlimit: 10;
    stroke-width: 0.5px;
    }
  </style>
  <path class="money-stack__bottom-rect" d="M30.93,3v7.09H.93L0,7.09H30V0Z" transform="translate(0 0)"/>
  <path class="money-stack__background" d="M4.51.79h21c0,.87,1.35,1.58,3,1.58V4.72c-1.66,0-3,.71-3,1.58h-21c0-.87-1.35-1.58-3-1.58V2.37C3.16,2.37,4.51,1.66,4.51.79Z" transform="translate(0 0)"/>
  <path class="money-stack__pattern" d="M0,7.09H30V4.93h0V2.16h0V0H0ZM25.49.79c0,.87,1.35,1.58,3,1.58V4.72c-1.66,0-3,.71-3,1.58H16.77c1.63-.45,2.77-1.52,2.77-2.76S18.4,1.24,16.77.79Zm-9.3,3.76c0-.33-.28-.5-1.3-.68-1.86-.33-2.4-.75-2.4-1.39s.82-1.12,1.86-1.25V.79h1.3v.44c1.37.13,1.85.65,1.94,1.18H16c-.08-.19-.22-.5-1.06-.5s-.91.26-.91.47.26.43,1.43.64c1.65.28,2.26.69,2.26,1.42s-.8,1.2-2,1.31v.54H14.43V5.75c-1.27-.12-2-.6-2.09-1.26H13.9c.13.35.56.57,1.22.57C15.93,5.06,16.19,4.82,16.19,4.55Zm-3-3.76c-1.63.45-2.77,1.51-2.77,2.75S11.6,5.85,13.23,6.3H4.51c0-.87-1.35-1.58-3-1.58V2.37c1.66,0,3-.71,3-1.58Z" transform="translate(0 0)"/>
  <line class="money-stack__bottom-line" x1="0.85" y1="9.83" x2="30.85" y2="9.83"/>
</svg>
