<svg class="money-stack_vertical" xmlns="http://www.w3.org/2000/svg" viewBox="0 0 10 30" preserveAspectRatio="none">
  <style>
    .money-stack__bottom-rect {
    fill: #7e922d;
    }

    .money-stack__background {
    fill: #fcfdc0;
    }

    .money-stack__pattern {
    fill: #9bab53;
    }

    .money-stack__bottom-border {
    fill: none;
    stroke: #525b1e;
    stroke-miterlimit: 10;
    stroke-width: 0.5px;
    }
  </style>
  <rect class="money-stack__bottom-rect" y="28" width="10" height="2"/>
  <path class="money-stack__background" d="M8.89,4.21v19.6a2.57,2.57,0,0,0-2.24,2.8H3.34a2.56,2.56,0,0,0-2.23-2.8V4.21a2.56,2.56,0,0,0,2.23-2.8H6.65A2.57,2.57,0,0,0,8.89,4.21Z"/>
  <path class="money-stack__pattern" d="M0,0V28H10V0ZM8.89,23.79a2.57,2.57,0,0,0-2.24,2.8H3.34a2.56,2.56,0,0,0-2.23-2.8V15.65a4.18,4.18,0,0,0,7.73,0ZM3.58,15.11c.47,0,.7-.26,1-1.21.47-1.74,1.06-2.24,2-2.24a1.92,1.92,0,0,1,1.76,1.73h.62v1.22H8.27A1.88,1.88,0,0,1,6.6,16.42V14.93c.26-.07.69-.2.69-1s-.36-.85-.65-.85-.61.25-.9,1.34c-.4,1.54-1,2.11-2,2.11a1.89,1.89,0,0,1-1.84-1.87H1.11v-1.2h.78a2,2,0,0,1,1.77-2V13a1.06,1.06,0,0,0-.8,1.14C2.86,14.87,3.19,15.11,3.58,15.11Zm5.31-2.8A4.23,4.23,0,0,0,4.94,9.76a4.16,4.16,0,0,0-3.83,2.59V4.21a2.56,2.56,0,0,0,2.23-2.8H6.65a2.56,2.56,0,0,0,2.24,2.8Z"/>
  <line class="money-stack__bottom-border" x1="10" y1="29.74" y2="29.74"/>
</svg>
