<svg class="money-stack_horizontal" xmlns="http://www.w3.org/2000/svg" viewBox="0 0 30 10" preserveAspectRatio="none">
  <style>
    .money-stack__bottom-rect {
    fill: #7e922d;
    }

    .money-stack__background {
    fill: #fcfdc0;
    }

    .money-stack__pattern {
    fill: #9bab53;
    }

    .money-stack__bottom-border {
      fill: none;
      stroke: #525b1e;
      stroke-miterlimit: 10;
      stroke-width: 0.5px;
    }
  </style>
  <path class="money-stack__background" d="M4.51.9h21c0,1,1.35,1.8,3,1.8V5.38c-1.66,0-3,.81-3,1.81h-21c0-1-1.35-1.81-3-1.81V2.7C3.16,2.7,4.51,1.9,4.51.9Z"/>
  <path class="money-stack__pattern" d="M0,8.09H30V5.62h0V2.46h0V0H0ZM25.49.9c0,1,1.35,1.8,3,1.8V5.38c-1.66,0-3,.81-3,1.81H16.77A3.55,3.55,0,0,0,19.54,4,3.55,3.55,0,0,0,16.77.9Zm-9.3,4.29c0-.38-.28-.57-1.3-.77C13,4,12.49,3.56,12.49,2.83s.82-1.28,1.86-1.42V.9h1.3v.5c1.37.15,1.85.74,1.94,1.35H16c-.08-.22-.22-.57-1.06-.57s-.91.3-.91.54.26.49,1.43.72c1.65.33,2.26.8,2.26,1.62s-.8,1.37-2,1.5v.62H14.43V6.56c-1.27-.14-2-.69-2.09-1.44H13.9c.13.4.56.66,1.22.66C15.93,5.78,16.19,5.5,16.19,5.19ZM13.23.9A3.55,3.55,0,0,0,10.46,4a3.55,3.55,0,0,0,2.77,3.15H4.51c0-1-1.35-1.81-3-1.81V2.7c1.66,0,3-.8,3-1.8Z"/>
  <rect class="money-stack__bottom-rect" y="8.09" width="30" height="2"/>
  <line class="money-stack__bottom-border" y1="9.83" x2="30" y2="9.83"/>
</svg>
