<svg class="money-stack_vertical" xmlns="http://www.w3.org/2000/svg" viewBox="0 0 10.93 30" preserveAspectRatio="none">
  <style>
    .cls-1 {
      fill: #7e922d;
    }

    .cls-2 {
      fill: #fcfdc0;
    }

    .cls-3 {
      fill: #9bab53;
    }

    .cls-4 {
      fill: none;
      stroke: #525b1e;
      stroke-miterlimit: 10;
      stroke-width: 0.5px;
    }
  </style>
  <polygon class="cls-1" points="10.93 30 0.93 30 0 27 10 27 10.93 30"/>
  <polygon class="cls-1" points="10.93 3 10.93 30 10 27 10 0 10.93 3"/>
  <path class="cls-2" d="M8.89,4.06V23a2.5,2.5,0,0,0-2.24,2.7H3.34A2.49,2.49,0,0,0,1.11,23V4.06a2.5,2.5,0,0,0,2.23-2.7H6.65A2.51,2.51,0,0,0,8.89,4.06Z"/>
  <path class="cls-3" d="M0,0V27H10V0ZM8.89,22.94a2.51,2.51,0,0,0-2.24,2.7H3.34a2.49,2.49,0,0,0-2.23-2.7V15.09a4.17,4.17,0,0,0,3.83,2.5c1.91-.13,3.49-1.14,3.9-2.5ZM3.58,14.57c.47,0,.7-.25,1-1.17.47-1.67,1.06-2.16,2-2.16a1.89,1.89,0,0,1,1.76,1.67h.62v1.17H8.27A1.84,1.84,0,0,1,6.6,15.83V14.4a.83.83,0,0,0,.69-1c0-.76-.36-.82-.65-.82s-.61.23-.9,1.28c-.4,1.49-1,2-2,2a1.86,1.86,0,0,1-1.84-1.8H1.11V13h.78a2,2,0,0,1,1.77-1.88v1.4a1,1,0,0,0-.8,1.1C2.86,14.34,3.19,14.57,3.58,14.57Zm5.31-2.7c-.44-1.36-2-2.35-3.95-2.46a4.17,4.17,0,0,0-3.83,2.5V4.06a2.5,2.5,0,0,0,2.23-2.7H6.65a2.5,2.5,0,0,0,2.24,2.7Z"/>
  <line class="cls-4" x1="10.85" y1="29.74" x2="0.85" y2="29.74"/>
</svg>
