<svg class="money-stack_vertical" xmlns="http://www.w3.org/2000/svg" viewBox="0 0 10 30" preserveAspectRatio="none">
  <style>
    .money-stack__bottom-rect {
      fill: #7e922d;
    }

    .money-stack__background {
      fill: #fcfdc0;
    }

    .money-stack__pattern {
      fill: #9bab53;
    }

    .money-stack__bottom-border {
      fill: none;
      stroke: #525b1e;
      stroke-miterlimit: 10;
      stroke-width: 0.5px;
    }
  </style>
  <rect class="money-stack__bottom-rect" x="-14" y="14" width="30" height="2" transform="translate(16 14) rotate(90)"/>
  <path class="money-stack__background" d="M9.19,4.51v21c-1,0-1.81,1.35-1.81,3H4.7c0-1.66-.8-3-1.8-3v-21c1,0,1.8-1.35,1.8-3H7.38C7.38,3.16,8.19,4.51,9.19,4.51Z"/>
  <path class="money-stack__pattern" d="M2,0V30h8.09V0ZM9.19,25.49c-1,0-1.81,1.35-1.81,3H4.7c0-1.66-.8-3-1.8-3V16.77A3.55,3.55,0,0,0,6,19.54a3.55,3.55,0,0,0,3.15-2.77ZM4.9,16.19c.38,0,.56-.28.77-1.3.38-1.86.86-2.4,1.59-2.4s1.28.82,1.42,1.86h.5v1.3H8.69C8.54,17,7.94,17.5,7.34,17.59V16c.21-.08.56-.22.56-1.06s-.29-.91-.53-.91-.49.26-.73,1.43c-.32,1.65-.79,2.26-1.62,2.26s-1.37-.8-1.49-2H2.9V14.43h.63c.13-1.27.68-2,1.43-2.09V13.9c-.4.13-.65.56-.65,1.22C4.31,15.93,4.58,16.19,4.9,16.19Zm4.29-3A3.55,3.55,0,0,0,6,10.46,3.55,3.55,0,0,0,2.9,13.23V4.51c1,0,1.8-1.35,1.8-3H7.38c0,1.66.81,3,1.81,3Z"/>
  <line class="money-stack__bottom-border" x1="0" y1="29.75" x2="30" y2="29.75"/>
</svg>
