<svg class="money-drop-template" xmlns="http://www.w3.org/2000/svg" viewBox="0 0 23.78 55.58" preserveAspectRatio="none">
  <defs>
    <style>
      .cls-1 {
        fill: #dcdcdc;
      }

      .cls-2 {
        fill: #c14141;
      }

      .cls-2, .cls-3, .cls-7 {
        fill-rule: evenodd;
      }

      .cls-3 {
        fill: #852d2d;
      }

      .cls-4 {
        fill: none;
      }

      .cls-5 {
        fill: url(#linear-gradient);
      }

      .cls-6 {
        fill: url(#linear-gradient-2);
      }

      .cls-7 {
        fill: #c47c7c;
      }

      .cls-8 {
        fill: url(#linear-gradient-3);
      }

      .cls-9 {
        fill: #e96363;
      }
    </style>
    <linearGradient id="linear-gradient" x1="77.11" y1="-5.87" x2="34.74" y2="-6.5" gradientTransform="matrix(-0.08, 1.1, 1, 0, 32.8, -33.76)" gradientUnits="userSpaceOnUse">
      <stop offset="0" stop-color="#bab9b9"/>
      <stop offset="0.49" stop-color="#fff"/>
      <stop offset="1" stop-color="#b5b5b5"/>
    </linearGradient>
    <linearGradient id="linear-gradient-2" x1="74.55" y1="78.6" x2="117.99" y2="-427.27" gradientTransform="matrix(0, 1, 1, 0, 29.01, -28.99)" gradientUnits="userSpaceOnUse">
      <stop offset="0" stop-color="#fff"/>
      <stop offset="0.23" stop-color="#bebebe"/>
      <stop offset="0.31" stop-color="#babcbd"/>
      <stop offset="0.46" stop-color="#9e9e9e"/>
      <stop offset="0.74" stop-color="#a1a4a8"/>
      <stop offset="0.82" stop-color="#fff"/>
      <stop offset="1" stop-color="#fff"/>
    </linearGradient>
    <linearGradient id="linear-gradient-3" x1="56.6" y1="46.2" x2="56.58" y2="-27.75" gradientTransform="matrix(0, 1, 1, 0, 29.01, -28.99)" gradientUnits="userSpaceOnUse">
      <stop offset="0" stop-color="#aa1a18" stop-opacity="0.72"/>
      <stop offset="0.12" stop-color="#8f1c1c"/>
      <stop offset="0.48" stop-color="#8e1414"/>
      <stop offset="0.82" stop-color="#931f1f"/>
      <stop offset="1" stop-color="#e96363"/>
    </linearGradient>
  </defs>
  <g>
    <path class="cls-1" d="M19.27,51.72a1.14,1.14,0,0,0,.32-.06,1.28,1.28,0,0,0,.22-.09.25.25,0,0,0,.05-.07.13.13,0,0,0,0-.09c0-.09-.16-.17-.44-.3h0a93.64,93.64,0,0,0,.39-17.74s0-1.3,0-1.8c0-1.37.16-3.09.12-3.89-.13-2.62-.3-6.31-.25-9.31.36-9.12.2-14,.34-16.58,0-.17,0-.39.05-.54L20.13.13c-.27.32-2.71.3-3.06.29-2,0-4.47,0-5,0C11.28.39,7.76.17.13.13,1.39,6.21.11,10.22.13,14c0,7.48,1.13,13.31,1.1,17.32C1.17,37.3,1.74,44.1.13,51.91h0C9.16,51.64,13.09,51.57,19.27,51.72Z" transform="translate(-0.13 -0.13)"/>
    <path class="cls-2" d="M2.08,2.23l15.8.09c-.5.28-.9,9-.75,11.93.23,4.29,1.23,13.86,1.91,24.11a60.51,60.51,0,0,1-1,11.4l-16.24.09c.89-2.63,1-6,1.22-10.61.18-3.86,0-10.88-.9-23.29-.2-2.71,0-7.5,0-13.72ZM3.44,8c0,1.92.33,4.27.53,7.81C4.49,25,5,31.72,5.05,36.42c0,5.81-1.59,9.59-1,11.91a2.47,2.47,0,0,0,1.69.47l9.63.11c1-.25,1.59-.46,1.67-.63.79-1.75.59-5.4.45-11.09-.12-4.79-1-12.14-1.77-21.38A56.4,56.4,0,0,1,16,4c0-.22-.92-.66-2.39-.69L5.42,3.13c-1.16,0-1.58.4-1.76.83C3.26,4.9,3.42,7,3.44,8Z" transform="translate(-0.13 -0.13)"/>
    <path class="cls-3" d="M10.6,35.91c-1.52-1-2.51-6.34-2.79-11.62-.29-5.44.9-10.37,2.51-9s2.95,8,3.11,13.12C13.66,35.92,12.41,37.05,10.6,35.91Z" transform="translate(-0.13 -0.13)"/>
    <polygon class="cls-4" points="21.57 53.29 23.76 55.5 22.05 53.81 21.57 53.29"/>
    <path class="cls-5" d="M19.87,51.46a0,0,0,0,1,0,0c0-.09-.17-.19-.45-.32h0A89.57,89.57,0,0,0,20,40.37c0-2.81-.08-5.14-.19-7,0,0,0-1.3,0-1.8,0-1.37.16-3.09.12-3.89-.13-2.62-.3-6.31-.25-9.31.36-9.12.09-14.15.35-16.7a3.13,3.13,0,0,1,0-.42L20.13.13a15,15,0,0,1,2.25,3.05,19.3,19.3,0,0,1,1.51,3c-.51,7.33.15,10.64,0,17.7-.09,4.23-.15,10,0,17,.07,3-.37,7.5,0,14.8,0,0-1.68-1.61-2.19-2.21S19.87,51.46,19.87,51.46Z" transform="translate(-0.13 -0.13)"/>
    <path class="cls-6" d="M13.75,55.63c-1.41-.05-7-.06-9.86,0L.13,51.91h0c9-.27,13-.34,19.14-.19a1.14,1.14,0,0,0,.32-.06l.08,0,.14-.07h0a.05.05,0,0,0,0,0s0,0,0,0l1.3,1.36,1,1.11,1.71,1.7C21.45,55.73,15.34,55.74,13.75,55.63Z" transform="translate(-0.13 -0.13)"/>
    <path class="cls-7" d="M23.32,5.66c-.31,2.31-.5,7-.59,14.12-.08,7.33.14,18.66.67,34.35L22.67,41q-.41-12.58-.26-21.72a100.55,100.55,0,0,1,.91-13.65Zm-1.47,4.65c.09-1.39.25-3.1.49-5.12l0-.28v0c-.27,2.48-.45,7-.54,13.52-.06,5.15.35,12.7.58,21.87.07,2.62.08,6.78.05,12.56L22,38q-.33-10.26-.53-20c-.06-3.06.19-5.45.34-7.68Zm-.64-1c.09-1.4.26-3.11.5-5.12l0-.28V4c-.27,2.48-.46,7-.55,13.53-.08,5.15.33,12.72.55,21.91.07,2.62.08,6.79,0,12.57l-.41-15q-.32-10.28-.51-20c-.06-3.06.2-5.45.35-7.68Zm-.64-1c.09-1.4.26-3.12.51-5.13l0-.28V3c-.28,2.48-.47,7-.57,13.55-.08,5.16.32,12.73.53,21.94.07,2.62.07,6.8,0,12.59l-.39-15q-.32-10.29-.49-20c-.06-3.07.21-5.47.36-7.69Z" transform="translate(-0.13 -0.13)"/>
    <path class="cls-8" d="M19.78,32v-.46c0-1.37.16-3.09.12-3.89-.12-2.49-.28-5.93-.26-8.84l4.27,4.51c-.06,3.53-.12,9.85,0,13Z" transform="translate(-0.13 -0.13)"/>
    <path class="cls-9" d="M1.23,31.35c0-3.06-.6-7.19-.92-12.29l19.33-.23c0,2.91.14,6.35.26,8.84,0,.8-.12,2.52-.12,3.89V32l-18.55.5C1.23,32.13,1.22,31.73,1.23,31.35Z" transform="translate(-0.13 -0.13)"/>
  </g>
</svg>
