<svg class="money-drop-template" xmlns="http://www.w3.org/2000/svg" viewBox="0 0 55.58 23.78" preserveAspectRatio="none">
  <defs>
    <style>
      .cls-1 {
        fill: #dcdcdc;
      }

      .cls-2 {
        fill: #524646;
      }

      .cls-3 {
        fill: #c14141;
      }

      .cls-3, .cls-4, .cls-8 {
        fill-rule: evenodd;
      }

      .cls-4 {
        fill: #852d2d;
      }

      .cls-5 {
        fill: none;
      }

      .cls-6 {
        fill: url(#linear-gradient);
      }

      .cls-7 {
        fill: url(#linear-gradient-2);
      }

      .cls-8 {
        fill: #c47c7c;
      }

      .cls-9 {
        fill: url(#linear-gradient-3);
      }

      .cls-10 {
        fill: #e96363;
      }
    </style>
    <linearGradient id="linear-gradient" x1="52.39" y1="19.8" x2="10.02" y2="19.17" gradientTransform="matrix(1.1, -0.08, 0, 1, -6.43, 5.11)" gradientUnits="userSpaceOnUse">
      <stop offset="0" stop-color="#bab9b9"/>
      <stop offset="0.49" stop-color="#fff"/>
      <stop offset="1" stop-color="#b5b5b5"/>
    </linearGradient>
    <linearGradient id="linear-gradient-2" x1="45.59" y1="107.64" x2="89.03" y2="-398.23" gradientUnits="userSpaceOnUse">
      <stop offset="0" stop-color="#fff"/>
      <stop offset="0.23" stop-color="#bebebe"/>
      <stop offset="0.31" stop-color="#babcbd"/>
      <stop offset="0.46" stop-color="#9e9e9e"/>
      <stop offset="0.74" stop-color="#a1a4a8"/>
      <stop offset="0.82" stop-color="#fff"/>
      <stop offset="1" stop-color="#fff"/>
    </linearGradient>
    <linearGradient id="linear-gradient-3" x1="27.64" y1="75.24" x2="27.62" y2="1.29" gradientUnits="userSpaceOnUse">
      <stop offset="0" stop-color="#aa1a18" stop-opacity="0.72"/>
      <stop offset="0.12" stop-color="#8f1c1c"/>
      <stop offset="0.48" stop-color="#8e1414"/>
      <stop offset="0.82" stop-color="#931f1f"/>
      <stop offset="1" stop-color="#e96363"/>
    </linearGradient>
  </defs>
  <path class="cls-1" d="M51.94.16h0c-7.81,1.61-14.61,1-20.56,1.09-4,0-9.84-1-17.32-1.09C10.25.14,6.24,1.42.16.16c0,7.62.25,11.15.28,11.92,0,.54,0,3.05,0,5,0,.35,0,.38-.29.66.25,1.41.55,2.1,1.11,2.32a1.34,1.34,0,0,0,.46.09c2.54-.33,7.54-.12,16.66-.49,3-.05,6.69.13,9.31.26.8,0,2.52-.13,3.89-.13l1.8,0a92.8,92.8,0,0,0,17.74-.39h0c.13.28.23.42.32.45h.07a.1.1,0,0,0,0,0h0v0a.76.76,0,0,0,.07-.13s0-.05,0-.08a1.3,1.3,0,0,0,.06-.33C51.6,13.12,51.67,9.19,51.94.16Zm-.41,18.25v0Zm0,1.34v0Zm0-.31v0Zm0-.45v0Zm0-3.57c0-.36,0-.73,0-1.11C51.56,14.69,51.55,15.06,51.55,15.42Zm0,2.26c0-.17,0-.34,0-.52C51.54,17.34,51.53,17.51,51.53,17.68Zm0-.62c0-.45,0-.95,0-1.48C51.55,16.11,51.54,16.6,51.54,17.06Z" transform="translate(-0.16 -0.16)"/>
  <path class="cls-2" d="M.16,17.75v2.41H1.73A4.21,4.21,0,0,0,.16,17.75Z" transform="translate(-0.16 -0.16)"/>
  <path class="cls-3" d="M2.26,2.11c6.22,0,11-.15,13.71.05,12.42.94,19.44,1.07,23.29.89,4.67-.21,8-.33,10.62-1.21l-.09,16.24a61.38,61.38,0,0,1-11.4,1c-10.25-.69-19.82-1.68-24.11-1.91-3-.16-11.65.25-11.93.74L2.26,2.11ZM4,3.68c-.43.18-.83.61-.83,1.76l.15,8.23c0,1.48.46,2.41.69,2.4a56.56,56.56,0,0,1,11.84-.29c9.24.75,16.59,1.66,21.38,1.78,5.69.14,9.34.33,11.09-.46.17-.07.38-.63.63-1.67l-.11-9.62a2.47,2.47,0,0,0-.47-1.69c-2.32-.64-6.1,1-11.91,1C31.75,5.05,25,4.51,15.86,4c-3.54-.2-5.89-.5-7.81-.53C7,3.45,4.92,3.29,4,3.68Z" transform="translate(-0.16 -0.16)"/>
  <path class="cls-4" d="M35.93,10.63C35,9.1,29.59,8.12,24.32,7.84c-5.44-.29-10.37.9-9,2.5s8,3,13.12,3.11C36,13.68,37.08,12.43,35.93,10.63Z" transform="translate(-0.16 -0.16)"/>
  <polygon class="cls-5" points="53.29 21.57 55.5 23.76 53.81 22.05 53.29 21.57"/>
  <path class="cls-6" d="M51.49,19.89h0c-.09,0-.19-.17-.32-.45h0A89.81,89.81,0,0,1,40.4,20c-2.81,0-5.14-.08-7-.2l-1.8,0c-1.37,0-3.09.17-3.89.13-2.62-.13-6.31-.31-9.31-.26-9.12.37-14.15.1-16.7.36a3.13,3.13,0,0,0-.42,0l-1.11.09A15,15,0,0,0,3.21,22.4a19.22,19.22,0,0,0,3,1.52c7.33-.51,10.64.15,17.7,0,4.23-.09,10-.15,17,0,3,.06,7.5-.38,14.8,0,0,0-1.61-1.68-2.21-2.2S51.49,19.89,51.49,19.89Z" transform="translate(-0.16 -0.16)"/>
  <path class="cls-7" d="M55.65,13.78c0-1.41,0-7,0-9.86L51.94.16h0c-.27,9-.34,13-.19,19.13a1.3,1.3,0,0,1-.06.33s0,.05,0,.08a.76.76,0,0,1-.07.13v0h0l0,0h0l1.36,1.31,1.11,1,1.7,1.72C55.76,21.48,55.77,15.37,55.65,13.78Z" transform="translate(-0.16 -0.16)"/>
  <path class="cls-8" d="M5.69,23.34a100.88,100.88,0,0,1,13.65-.9q9.15-.14,21.72.25l13.1.73c-15.69-.53-27-.74-34.35-.66-7.14.08-11.81.28-14.12.58Zm4.65-1.47c2.23-.14,4.62-.39,7.68-.33q9.7.2,20,.53l14.94.41c-5.78,0-9.94,0-12.56-.05-9.17-.23-16.72-.64-21.87-.57-6.56.09-11,.26-13.52.53h0l.28,0c2-.23,3.73-.4,5.12-.49Zm-1-.64c2.23-.14,4.62-.4,7.68-.34q9.74.18,20,.51l15,.4c-5.78,0-10,0-12.57,0-9.19-.23-16.76-.63-21.91-.56-6.57.1-11,.28-13.53.56H4l.28,0c2-.24,3.72-.4,5.12-.5Zm-1-.64c2.22-.15,4.62-.41,7.68-.35q9.75.17,20,.49l15,.39c-5.79.05-10,0-12.59,0-9.21-.22-16.79-.62-21.94-.54-6.58.1-11.07.29-13.55.57H3l.28,0c2-.24,3.73-.41,5.13-.51Z" transform="translate(-0.16 -0.16)"/>
  <path class="cls-9" d="M32.05,19.81h-.46c-1.37,0-3.09.17-3.89.13-2.49-.12-5.93-.29-8.84-.26l4.51,4.27c3.53-.07,9.85-.12,13,0C36.39,23.92,32.07,19.81,32.05,19.81Z" transform="translate(-0.16 -0.16)"/>
  <path class="cls-10" d="M31.38,1.25c-3.06,0-7.19-.6-12.29-.91l-.23,19.33c2.91,0,6.35.14,8.84.26.8,0,2.52-.13,3.89-.13h.46l.5-18.56Z" transform="translate(-0.16 -0.16)"/>
</svg>
