<svg xmlns="http://www.w3.org/2000/svg" xmlns:xlink="http://www.w3.org/1999/xlink" viewBox="0 0 58.44 24.11" preserveAspectRatio="none">
  <defs>
    <style>
      .cls-1 {
        fill: #dcdcdc;
      }

      .cls-2 {
        fill: #524646;
      }

      .cls-3 {
        fill: none;
      }

      .cls-4 {
        fill: #c14141;
      }

      .cls-10, .cls-4, .cls-5 {
        fill-rule: evenodd;
      }

      .cls-5 {
        fill: #852d2d;
      }

      .cls-6 {
        fill: #e96363;
      }

      .cls-7 {
        fill: url(#linear-gradient);
      }

      .cls-8 {
        fill: url(#linear-gradient-2);
      }

      .cls-9 {
        fill: url(#linear-gradient-3);
      }

      .cls-10 {
        fill: #c47c7c;
      }

      .cls-11 {
        fill: url(#linear-gradient-4);
      }
    </style>
    <linearGradient id="linear-gradient" x1="48.9" y1="20.44" x2="4.53" y2="19.78" gradientTransform="matrix(1.1, -0.08, 0, 1, -0.03, 0.02)" gradientUnits="userSpaceOnUse">
      <stop offset="0" stop-color="#bab9b9"/>
      <stop offset="0.49" stop-color="#fff"/>
      <stop offset="1" stop-color="#b5b5b5"/>
    </linearGradient>
    <linearGradient id="linear-gradient-2" x1="55.07" y1="28.03" x2="58.27" y2="-9.24" gradientUnits="userSpaceOnUse">
      <stop offset="0" stop-color="#fff"/>
      <stop offset="0.23" stop-color="#bebebe"/>
      <stop offset="0.31" stop-color="#babcbd"/>
      <stop offset="0.46" stop-color="#9e9e9e"/>
      <stop offset="0.74" stop-color="#a1a4a8"/>
      <stop offset="0.82" stop-color="#fff"/>
      <stop offset="1" stop-color="#fff"/>
    </linearGradient>
    <linearGradient id="linear-gradient-3" x1="52.55" y1="27.81" x2="55.75" y2="-9.46" xlink:href="#linear-gradient-2"/>
    <linearGradient id="linear-gradient-4" x1="30.11" y1="161.85" x2="30.07" y2="-37.64" gradientUnits="userSpaceOnUse">
      <stop offset="0" stop-color="#aa1a18" stop-opacity="0.72"/>
      <stop offset="0.12" stop-color="#8f1c1c"/>
      <stop offset="0.48" stop-color="#8e1414"/>
      <stop offset="0.82" stop-color="#931f1f"/>
      <stop offset="1" stop-color="#e96363"/>
    </linearGradient>
  </defs>
  <path class="cls-1" d="M54.55,0C46.32,1,39.16.61,32.89.65,28.66.67,22.52,0,14.65,0,10.63,0,6.41.75,0,0,.05,4.51.27,6.59.3,7.05A10,10,0,0,1,0,10.39a4,4,0,0,1,1.55,1.29l.11.13c2.67-.19,7.94-.07,17.55-.28,3.16,0,7,.07,9.81.15.84,0,2.65-.07,4.09-.07H35a174.81,174.81,0,0,0,18.69-.23h0a.65.65,0,0,0,.34.26h.06l.06,0h0a.19.19,0,0,0,.07-.08l0,0a.71.71,0,0,0,.06-.19A100.33,100.33,0,0,1,54.55,0Z"/>
  <path class="cls-2" d="M0,10.39l.33,1.42H1.66A4.1,4.1,0,0,0,0,10.39Z"/>
  <path class="cls-3" d="M53.71,11.39h0Z"/>
  <path class="cls-3" d="M54.11,11.66l.06,0Z"/>
  <path class="cls-3" d="M53.71,11.39h0Z"/>
  <path class="cls-3" d="M54.26,11.54a.19.19,0,0,1-.07.08A.19.19,0,0,0,54.26,11.54Z"/>
  <path class="cls-3" d="M54.35,11.31a.71.71,0,0,1-.06.19A1.45,1.45,0,0,0,54.35,11.31Z"/>
  <path class="cls-3" d="M54.07,11.66h0Z"/>
  <path class="cls-4" d="M2.62,1.35c6.63,0,11.3.12,14.16.33,13,1,21.23.86,25.13.46,5-.53,8.89-.09,11.49-1l-.51,9.61c-5.45.45-9.54.64-12.18.58-10.89-.55-21.09-1-25.66-1.13-3.17-.09-12.44.15-12.75.44l.32-9.34Zm2,1c-.25,0-.62.31-1.13,1l0,4.86c0,.87.44,1.43.68,1.42a105.24,105.24,0,0,1,12.63-.17c9.82.53,17.66,1.29,22.77,1.36,6.06.08,9.94-.11,11.82-.58.19-.05.43-.37.72-1l.14-5.69q-.37-.74-.6-.66c-2.35-.52-6.4.24-12.6.23-6.94,0-18,.37-34.38-.75h0Z"/>
  <path class="cls-5" d="M38.45,6.37c-1-1.47-6.3-2.17-11.54-2.17-5.4,0-10.3,1.45-8.95,3s8,2.54,13,2.42C38.47,9.43,39.59,8.12,38.45,6.37Z"/>
  <path class="cls-1" d="M29.17,11.4"/>
  <polygon class="cls-3" points="28.07 11.65 28.07 11.65 28.07 11.65 28.07 11.65"/>
  <path class="cls-6" d="M28.07,11.65h0c2.27,0,5.15,0,6.71,0h.06L36.29.67c-1.74-.08-2.94,0-3.78,0S30,.6,29.31.57C27.6.5,25.43.28,22.83.22L21.64,11.53C22,11.54,26,11.65,28.07,11.65Z"/>
  <path class="cls-7" d="M54.29,11.5l0,0a.19.19,0,0,1-.07.08h0l-.06,0h-.06a.65.65,0,0,1-.34-.26h0A174.81,174.81,0,0,1,35,11.62h-.22c-1.56,0-4.44,0-6.71,0h0c-2.13,0-6.39-.12-6.47-.12H19.21c-9.61.21-14.88.09-17.55.28l-.11-.13H1.32l-1,.05a28.12,28.12,0,0,0,1.33,6,66.11,66.11,0,0,0,2.49,6.4c7-1.29,10.43-.51,17.49-.66,4.23-.09,9.06-.16,16.08,0,3,.07,13.31.29,20.61.67l-4-12.8A1.45,1.45,0,0,1,54.29,11.5Z"/>
  <path class="cls-8" d="M58.38,17.18c0-1.4-.15-2.28-.09-5.13L54.55,0c-.09,7.23-.1,10.83-.2,11.31l3,9.75.95,3.05C58.43,21.67,58.5,18.77,58.38,17.18Z"/>
  <path class="cls-1" d="M54.35,11.31c.1-.48.11-4.08.2-11.31A100.33,100.33,0,0,0,54.35,11.31Z"/>
  <path class="cls-9" d="M54.35,11.31c.1-.48.11-4.08.2-11.31A100.33,100.33,0,0,0,54.35,11.31Z"/>
  <path class="cls-10" d="M4.7,23.12a80,80,0,0,1,15.71-1.71q9.87-.29,22.62.36L55.86,23c-15.7-.87-27.39-1.21-35.27-1s-13,.56-15.89,1.13Zm6.61-2.7a60.46,60.46,0,0,1,8.58-.63q10.13.32,20.52.88l15,.67c-5.94.09-10.21.08-12.86,0-9.35-.38-16.92-1.09-22.46-.95a123.31,123.31,0,0,0-15.15,1h0l.34-.06c2.45-.45,4.48-.75,6.08-.92Zm-.38-1.15a60.51,60.51,0,0,1,8.59-.64q10.14.32,20.54.86l15,.66c-5.94.1-10.22.09-12.87,0-9.36-.37-16.94-1.07-22.48-.93a122.64,122.64,0,0,0-15.17,1h0l.34-.07q3.68-.66,6.08-.92Zm-.37-1.15a58.75,58.75,0,0,1,8.59-.65q10.14.3,20.55.84l15,.65c-5.94.1-10.22.1-12.88,0-9.37-.37-17-1.06-22.5-.91A121.62,121.62,0,0,0,4.16,19.11h0l.35-.06q3.68-.68,6.08-.93Zm-.46-1.39a60.34,60.34,0,0,1,8.6-.66q10.17.29,20.58.82l15,.63c-6,.11-10.24.12-12.9,0-9.38-.35-17-1-22.53-.88A124.82,124.82,0,0,0,3.7,17.73h0L4,17.67q3.68-.68,6.09-.94Zm8.31-1.6c4.32-.12,8.26.36,11.56.47l9,.34,15,.62c-6,.12-10.25.12-12.91,0-9.39-.34-17-1-22.55-.86-7.8.23-13.14.52-16.08.89a24.26,24.26,0,0,1,4.35-.8C9.4,15.53,15.59,15.21,18.41,15.13ZM18,14a160.7,160.7,0,0,1,20.62.79l15.06.61c-6,.12-10.26.13-12.92,0-9.4-.33-17-1-22.57-.84-7.81.24-12.93.44-15.45.62l6.62-.73C11.94,14.16,14.93,14,18,14Zm-.52-1.64q10.18.25,20.64.76l15.08.59c-6,.13-10.27.15-12.93.05-9.41-.32-17-1-22.6-.81A121.17,121.17,0,0,0,2.46,14h0L2.77,14c2.46-.46,4.5-.79,6.11-1A59,59,0,0,1,17.51,12.32Z"/>
  <path class="cls-11" d="M34.84,11.62c-3.67-.82-13.2-.09-13.2-.09l3.68,11.85c3.53-.06,10,0,13.2.08C38.52,23.46,34.86,11.62,34.84,11.62Z"/>
</svg>
