<svg id="money-drop-template" xmlns="http://www.w3.org/2000/svg" xmlns:xlink="http://www.w3.org/1999/xlink" viewBox="0 0 18.79 62" preserveAspectRatio="none">
  <defs>
    <style>
      .cls-1 {
        fill: url(#linear-gradient);
      }

      .cls-2 {
        fill: #dcdcdc;
      }

      .cls-3 {
        fill: #524646;
      }

      .cls-4 {
        fill: #852d2d;
      }

      .cls-4, .cls-5, .cls-9 {
        fill-rule: evenodd;
      }

      .cls-5 {
        fill: #c14141;
      }

      .cls-6 {
        fill: #e96363;
      }

      .cls-7 {
        fill: #d2d2d2;
      }

      .cls-8 {
        fill: url(#linear-gradient-2);
      }

      .cls-9 {
        fill: #c47c7c;
      }
    </style>
    <linearGradient id="linear-gradient" x1="46.5" y1="69.8" x2="22.25" y2="71.72" gradientTransform="matrix(2.56, -1.9, -1, 0, -16.32, 122.66)" gradientUnits="userSpaceOnUse">
      <stop offset="0.02" stop-color="#fff"/>
      <stop offset="0.19" stop-color="#e3e4e4"/>
      <stop offset="0.42" stop-color="#babcbd"/>
      <stop offset="1" stop-color="#9e9e9e"/>
    </linearGradient>
    <linearGradient id="linear-gradient-2" x1="-144.25" y1="-10.99" x2="-144.31" y2="-286.52" gradientTransform="matrix(0, -1, 0.22, 0.88, 63.12, 72.97)" gradientUnits="userSpaceOnUse">
      <stop offset="0" stop-color="#aa1a18" stop-opacity="0.72"/>
      <stop offset="0.12" stop-color="#8f1c1c"/>
      <stop offset="0.48" stop-color="#8e1414"/>
      <stop offset="0.82" stop-color="#931f1f"/>
      <stop offset="1" stop-color="#e96363"/>
    </linearGradient>
  </defs>
  <g>
    <path class="cls-1" d="M16.12,40.11H14.18a25.31,25.31,0,0,0-4.56-.22c-.63,0-3.35.19-9.5.22h0s1.88,18,2.79,22c1-.32,5.45.18,16,0h0c-.78-4.07-.91-6.94-1.24-8.53C17.2,51.3,16.15,40.36,16.12,40.11Z" transform="translate(-0.12 -0.1)"/>
    <path class="cls-2" d="M15.74,26.25a2.35,2.35,0,0,0,0-.27c0-2.33.11-5.19.21-7.22,0-.62-.1-2-.1-3,0-.17,0-.46,0-.72s0-.67,0-.67a128.34,128.34,0,0,0,0-12.84A3.74,3.74,0,0,0,15.56.1C10.59.22,7.4.31.12.1A98.14,98.14,0,0,1,.62,14c0,.65,0,1.29-.05,1.93C.5,18.29.3,21.45.19,25.37c0,1.24-.06,2.54-.07,3.93,0,2.95,1,6,0,10.8,6.15,0,8.87-.2,9.5-.22a25.31,25.31,0,0,1,4.56.22l.35-.33a4.57,4.57,0,0,1,1.16-.7l.25-.11.18-.08C15.87,36.94,16,33.14,15.74,26.25Z" transform="translate(-0.12 -0.1)"/>
    <path class="cls-3" d="M16.12,39.33v-.45a5.48,5.48,0,0,0-1.31.68,6,6,0,0,0-.63.54h1.94Z" transform="translate(-0.12 -0.1)"/>
    <g>
      <path class="cls-2" d="M15.74,26.25a2.35,2.35,0,0,0,0-.27c0-2.33.11-5.19.21-7.22,0-.62-.1-2-.1-3,0-.17,0-.46,0-.72s0-.67,0-.67a128.34,128.34,0,0,0,0-12.84A3.74,3.74,0,0,0,15.56.1C10.59.22,7.4.31.12.1A98.14,98.14,0,0,1,.62,14c0,.65,0,1.29-.05,1.93C.5,18.29.3,21.45.19,25.37c0,1.24-.06,2.54-.07,3.93,0,2.95,1,6,0,10.8,6.15,0,8.87-.2,9.5-.22a25.31,25.31,0,0,1,4.56.22l.35-.33a4.57,4.57,0,0,1,1.16-.7l.25-.11.18-.08C15.87,36.94,16,33.14,15.74,26.25Z" transform="translate(-0.12 -0.1)"/>
      <path class="cls-4" d="M7.28,12c-2.18.81-3.23,5.34-3.23,9.79s2.16,8.73,4.43,7.59,3.76-6.75,3.59-11C11.81,11.94,9.87,11,7.28,12Z" transform="translate(-0.12 -0.1)"/>
      <path class="cls-5" d="M1.61,38.21c.6-4.7-.43-7.63-.32-10.2.42-9.46.79-16,.59-18.82C1.62,5.5,1.82,3.9,1.39,1.84c0,0,5.06.18,6.73.2s6.68-.2,6.68-.2a37.31,37.31,0,0,1,.48,8.61,165.67,165.67,0,0,0-.93,18.36c.06,2.52.05,9.1.48,9.32l-13.22.08Zm1.43-3c.32.85.54.94,1.52,1.31l3.75-.37c1.29,0,3.61.55,5.09.31a37,37,0,0,1-.28-8.56c.22-3.3.27-6.19.37-8.81.13-3.17.41-5.83.47-7.87.12-4.4.32-6,0-7.44-.07-.13-.56-.31-1.47-.52L4,3.2c-.73.18-1.05.32-1,.43-.78,1.71,0,3.49-.05,8,0,4-.22,9.18-.31,17.05,0,2,.34,4.16.34,6.58v0Z" transform="translate(-0.12 -0.1)"/>
      <path class="cls-6" d="M15.94,18.76c0-.62-.1-2-.1-3,0-.17,0-.46,0-.72L.62,14c0,.65,0,1.29-.05,1.93C.5,18.29.3,21.45.19,25.37l15.55.88a2.35,2.35,0,0,0,0-.27C15.69,23.65,15.84,20.79,15.94,18.76Z" transform="translate(-0.12 -0.1)"/>
    </g>
    <path class="cls-7" d="M18.91,22.06,16.12.1h-.55a4,4,0,0,1,.27,1.42,128.34,128.34,0,0,1,0,12.84s0,.32,0,.67,0,.55,0,.72c0,1.06.13,2.39.1,3-.1,2-.25,4.89-.21,7.22a2.35,2.35,0,0,1,0,.27c.28,6.89.13,10.69.38,12.63V40.1h0c0,.25,1.08,11.19,1.55,13.42.33,1.59.46,4.46,1.24,8.53h0Z" transform="translate(-0.12 -0.1)"/>
    <path class="cls-6" d="M15.94,18.76c0-.62-.1-2-.1-3,0-.17,0-.46,0-.72L.62,14c0,.65,0,1.29-.05,1.93C.5,18.29.3,21.45.19,25.37l15.55.88a2.35,2.35,0,0,0,0-.27C15.69,23.65,15.84,20.79,15.94,18.76Z" transform="translate(-0.12 -0.1)"/>
    <path class="cls-8" d="M18.91,39.17S15.85,15,15.85,15h0c0,.26,0,.55,0,.72,0,1.06.13,2.39.1,3-.1,2-.25,4.89-.21,7.22a2.26,2.26,0,0,1,0,.26h0l3.17,23.5Z" transform="translate(-0.12 -0.1)"/>
    <path class="cls-9" d="M4,61.32a6.51,6.51,0,0,1,4.1-1.76,21.66,21.66,0,0,1,6.21.37l3.54,1.23a37,37,0,0,0-9.62-1Q5.07,60.44,4,61.32ZM1.2,42.54a6.62,6.62,0,0,1,4.1-1.76,21.66,21.66,0,0,1,6.21.37l3.54,1.23a36.91,36.91,0,0,0-9.62-1c-2.12.19-3.53.57-4.23,1.16Zm4.25,16a4.47,4.47,0,0,1,2.31-.66c1.9.23,3.82.53,5.75.92l4.1.69a18.5,18.5,0,0,1-3.45,0c-2.59-.38-4.75-1.11-6.27-1a9.2,9.2,0,0,0-4.08,1h0l.09-.07a7.51,7.51,0,0,1,1.56-.94Zm-2-13.37a4.61,4.61,0,0,1,2.23-.73q2.75.2,5.55.62l3.95.47a18.12,18.12,0,0,1-3.33.13c-2.49-.25-4.58-.85-6-.65a9.41,9.41,0,0,0-3.94,1.2h0L2,46.15a8.12,8.12,0,0,1,1.52-1Zm1.7,12.16a4.52,4.52,0,0,1,2.33-.67q2.87.35,5.79.93l4.13.69a18.18,18.18,0,0,1-3.48,0c-2.6-.39-4.78-1.13-6.31-1a9.24,9.24,0,0,0-4.11,1.08h0l.09-.07a7.78,7.78,0,0,1,1.57-1ZM4.89,56.1a4.56,4.56,0,0,1,2.34-.68q2.89.34,5.84.93l4.16.7a18.51,18.51,0,0,1-3.51,0c-2.62-.39-4.82-1.14-6.36-1a9.3,9.3,0,0,0-4.13,1.1h0l.09-.07a7.78,7.78,0,0,1,1.58-1Zm-.34-1.49a4.4,4.4,0,0,1,2.35-.7c1.95.22,3.92.54,5.9.94l4.19.7a18.93,18.93,0,0,1-3.53,0c-2.65-.4-4.87-1.15-6.42-1a9.23,9.23,0,0,0-4.17,1.13h0L3,55.61a7.63,7.63,0,0,1,1.6-1Zm2.13-1.73a13.8,13.8,0,0,1,3.36.55c.7.1,1.56.23,2.57.4l4.23.7a18.59,18.59,0,0,1-3.56,0c-2.66-.4-4.9-1.16-6.46-1a14.44,14.44,0,0,0-4.48.93,2.53,2.53,0,0,1,1.13-.87A15.14,15.14,0,0,1,6.68,52.88ZM6,46.08a13,13,0,0,1,3.3.46l2.54.32,4.16.59a18.81,18.81,0,0,1-3.5.08c-2.62-.33-4.82-1-6.36-.82a14.86,14.86,0,0,0-4.41,1,2.58,2.58,0,0,1,1.1-.87A15.62,15.62,0,0,1,6,46.08Zm.4,5.51a13,13,0,0,1,6,.94l4.26.72a17.89,17.89,0,0,1-3.59,0c-2.68-.4-4.93-1.17-6.51-1a34.59,34.59,0,0,0-4.37.63L4,52.09A6.52,6.52,0,0,1,6.4,51.59ZM6,49.73q3,.35,6,1l4.31.72a18.38,18.38,0,0,1-3.62,0c-2.72-.4-5-1.18-6.58-1a9.23,9.23,0,0,0-4.26,1.21h0L2,51.54a8.22,8.22,0,0,1,1.62-1.06A4.58,4.58,0,0,1,6,49.73ZM5,42.56c2,.22,4,.54,6,.95l4.3.72a18.59,18.59,0,0,1-3.62,0c-2.71-.41-5-1.19-6.58-1A9.27,9.27,0,0,0,.84,44.43h0l.09-.07A7.67,7.67,0,0,1,2.55,43.3,4.52,4.52,0,0,1,5,42.56Zm1,5.27c2,.21,4,.52,6,.91l4.29.69a18.69,18.69,0,0,1-3.61,0c-2.7-.38-5-1.14-6.56-1a9.24,9.24,0,0,0-4.24,1.24h0l.09-.07a8.35,8.35,0,0,1,1.62-1.07A4.61,4.61,0,0,1,6,47.83Z" transform="translate(-0.12 -0.1)"/>
  </g>
</svg>
